<?xml version="1.0" encoding="UTF-8"?>
<svg id="Layer_1" data-name="Layer 1" xmlns="http://www.w3.org/2000/svg" viewBox="0 0 577.28 532.96">
  <defs>
    <style>
      .cls-1 {
        fill: #4699d3;
      }

      .cls-2 {
        fill: #2a80c3;
      }

      .cls-3 {
        fill: #055697;
      }
    </style>
  </defs>
  <g>
    <path class="cls-3" d="M63.84,134.04H22.34v66.11h40.26v15.91H22.34v73.56h41.5v15.91H4.94V118.14h58.9v15.91Z"/>
    <path class="cls-3" d="M149.58,305.52h-16.15v-9.94h-.5c-4.72,7.21-11.93,11.93-21.12,11.93-20.38,0-30.32-11.43-30.32-67.1,0-28.58.99-64.37,31.81-64.37,8.95,0,14.66,3.73,19.63,10.69h.5v-8.7h16.15v127.49ZM117.02,189.21c-17.89,0-18.89,28.33-18.89,49.95,0,52.69,8.7,55.17,18.14,55.17,15.66,0,18.64-14.66,18.64-54.68,0-27.59-1.99-50.45-17.89-50.45Z"/>
    <path class="cls-3" d="M220.65,204.13h-.5c-4.72-6.71-12.18-12.92-21.12-12.92-9.69,0-15.91,7.46-15.91,16.9,0,12.18,10.44,19.63,20.63,28.08,10.44,8.7,20.63,18.14,20.63,34.79,0,20.38-13.67,36.53-34.79,36.53-7.95,0-16.9-3.73-23.11-8.7v-18.89c6.21,6.46,12.92,12.43,22.62,12.43,11.18,0,18.64-8.7,18.64-19.39,0-12.67-10.19-21.12-20.63-30.32-10.19-8.95-20.63-18.89-20.63-34.05,0-19.14,12.67-32.56,31.81-32.56,8.2,0,15.91,3.23,22.37,8.2v19.88Z"/>
    <path class="cls-3" d="M266.38,354.24h-16.9l12.67-52.19-30.32-124.01h16.4l21.37,102.89h.75c2.24-10.93,4.23-21.87,6.71-32.81l16.4-70.09h16.9l-43.99,176.21Z"/>
  </g>
  <g>
    <path class="cls-3" d="M191.52,351.64h-28.08v171.48h-17.4v-171.48h-28.08v-15.91h73.56v15.91Z"/>
    <path class="cls-3" d="M204.69,395.63v80.03c0,17.4.99,34.3,16.9,34.3s17.15-16.9,17.4-34.3v-80.03h16.15v93.69c0,21.37-10.44,35.79-33.3,35.79s-33.3-14.17-33.3-35.79v-93.69h16.15Z"/>
    <path class="cls-3" d="M292.66,405.82c6.46-7.46,15.16-12.18,25.1-12.18,22.62,0,24.6,20.88,24.6,38.27v91.21h-16.15v-89.47c0-15.16-.99-26.84-14.41-26.84-18.39,0-19.14,20.13-19.14,33.55v82.76h-16.15v-127.49h16.15v10.19Z"/>
    <path class="cls-3" d="M380.88,405.82c6.46-7.46,15.16-12.18,25.1-12.18,22.62,0,24.61,20.88,24.61,38.27v91.21h-16.15v-89.47c0-15.16-.99-26.84-14.41-26.84-18.39,0-19.14,20.13-19.14,33.55v82.76h-16.15v-127.49h16.15v10.19Z"/>
    <path class="cls-3" d="M465.87,462.74v3.73c0,12.67,2.24,43.49,19.88,43.49,14.17,0,16.15-19.88,16.15-30.07h16.65c-.25,19.39-7.7,45.23-31.31,45.23-33.55,0-38.02-39.76-38.02-65.36,0-22.86,4.97-66.11,35.79-66.11s34.55,39.02,34.55,61.39v7.7h-53.68ZM503.15,449.07l-.25-2.24c-.5-12.18-.99-38.02-17.89-38.02-15.41,0-18.89,28.83-18.89,40.26h37.03Z"/>
    <path class="cls-3" d="M554.34,523.13h-16.15v-198.82h16.15v198.82Z"/>
  </g>
  <polyline class="cls-3" points="249.47 354.24 239.07 395.63 255.23 395.63 266.38 354.24"/>
  <g>
    <path class="cls-3" d="M502.13,118.37c-4.39,23.79-14.51,54.04-32.81,98.05l-.02.06v.04c-14.65,39.54-19.33,75.01-20.67,97.82-1.06,17.88-.3,30.78.22,36.8l-77.16-17c.09-6.47,0-26.31-3.28-53.02-3.71-30.12-12.38-75.44-32.62-120.31-17.73-39.29-24.12-75.16-26.36-98.33-1.82-18.89-1.26-32.64-.85-38.38l195.17,40.68c1.36,17.83,2.33,32.22-1.62,53.58Z"/>
    <polygon class="cls-2" points="544.57 45.05 506.07 59.77 315.39 20.03 352.8 4.91 544.57 45.05"/>
    <g>
      <path class="cls-1" d="M496,304.42c-1.1,15.58-.74,26.29-.51,30.54l-41.26,15.83c-.45-5.17-1.11-15.98-.51-30.75l42.27-15.62Z"/>
      <path class="cls-1" d="M500.02,270.75c-1.68,10.05-2.75,18.99-3.44,26.51-.07.75-.13,1.48-.2,2.22l-42.39,15.67c.01-.21.02-.44.03-.66.47-7.85,1.34-17.24,2.89-27.81l43.11-15.93Z"/>
      <path class="cls-1" d="M500.92,265.62l-43.22,15.97c.98-5.95,2.16-12.22,3.61-18.77l43.54-16.09c-1.55,6.61-2.84,12.93-3.92,18.89Z"/>
      <path class="cls-1" d="M506.11,241.47l-43.61,16.11c1-4.23,2.11-8.56,3.35-12.98l43.72-16.16c-1.27,4.44-2.43,8.78-3.46,13.02Z"/>
      <path class="cls-1" d="M523.3,189.29c-1.44,3.58-2.93,7.24-4.5,10.99l-.02.05-.02.04c-2.88,7.76-5.4,15.35-7.61,22.7l-43.75,16.17c2.01-6.76,4.31-13.72,6.93-20.79,1.87-4.5,3.64-8.84,5.34-13.03l43.64-16.12Z"/>
      <path class="cls-1" d="M530.18,171.71c-1.46,3.88-3,7.85-4.62,11.95h0s-43.64,16.12-43.64,16.12c1.64-4.14,3.19-8.12,4.66-11.96l43.61-16.11Z"/>
      <path class="cls-1" d="M532.27,166.14l-43.6,16.11c2.19-5.86,4.16-11.37,5.95-16.56l43.49-16.08c-1.78,5.27-3.72,10.77-5.85,16.53Z"/>
      <path class="cls-1" d="M539.9,144.16l-43.43,16.05c3.18-9.6,5.68-18.1,7.61-25.78l43.39-16.93c-1.93,8.17-4.45,17.02-7.58,26.67Z"/>
      <path class="cls-1" d="M552.98,77.26c-.13,7.83-.85,16.23-2.54,26-.49,2.88-1.08,5.86-1.75,8.93l-43.3,16.9c3.24-14.04,4.55-25.27,4.86-35.58l42.74-16.25Z"/>
      <path class="cls-1" d="M553,72.45l-42.68,16.21c0-8.16-.56-15.92-1.19-24.3l42.56-16.27c.01.15.02.29.03.44.63,8.17,1.23,15.82,1.28,23.92Z"/>
    </g>
  </g>
</svg>